<?xml version="1.0" encoding="iso-8859-1"?>
<!-- Generator: Adobe Illustrator 19.0.0, SVG Export Plug-In . SVG Version: 6.00 Build 0)  -->
<svg version="1.1" id="Layer_1" xmlns="http://www.w3.org/2000/svg" xmlns:xlink="http://www.w3.org/1999/xlink" x="0px" y="0px"
	 viewBox="0 0 512.001 512.001" style="enable-background:new 0 0 512.001 512.001;" xml:space="preserve">
<g>
	<g>
		<path d="M314.837,218.491L314.837,218.491v-0.001h15.761h15.751c1.69-16.189,2.629-30.24,2.629-40.88
			c0-38.668-17.253-60.073-31.731-71.213c-12.809-9.868-25.587-13.467-30.626-14.562c-0.001,0-0.003-0.001-0.004-0.001
			l37.287-50.177l-25.117-18.665l-27.26,36.684V0h-31.293v59.201l-26.906-36.207L188.21,41.659l37.234,50.105h-0.001
			c-4.809,1.022-17.858,4.558-30.928,14.635c-13.477,10.369-29.364,29.635-31.491,63.452h15.688H194.4h20.309v31.293h-19.454h-15.72
			h-15.709c1.721,22.479,5.445,51.373,10.504,81.78h15.855h15.876h24.388v31.293h-18.672H195.84h-15.918
			c2.003,10.577,4.152,21.144,6.394,31.491c12.423,57.235,32.691,130.733,58.706,155.82l10.859,10.473l10.859-10.473
			c19.756-19.047,36.185-65.998,48.4-112.552h-16.189h-16.22h-14.666v-31.293h22.594h16.074h16.053
			c0.918-4.058,1.805-8.053,2.66-11.975c6.916-31.877,12.872-65.758,17.055-95.924h-15.803h-15.814H289.73v-31.293H314.837z"/>
	</g>
</g>
<g>
</g>
<g>
</g>
<g>
</g>
<g>
</g>
<g>
</g>
<g>
</g>
<g>
</g>
<g>
</g>
<g>
</g>
<g>
</g>
<g>
</g>
<g>
</g>
<g>
</g>
<g>
</g>
<g>
</g>
</svg>
